<svg width="298" height="153" viewBox="0 0 298 153" fill="none" xmlns="http://www.w3.org/2000/svg">
<g filter="url(#filter0_d_1_8)">
<rect x="4" width="290" height="145" rx="29" fill="#02020F"/>
<rect x="4.5" y="0.5" width="289" height="144" rx="28.5" stroke="black"/>
</g>
<path d="M104.648 37.1818H121.284V85.4545C121.261 89.9773 120.182 93.9318 118.045 97.3182C115.909 100.682 112.955 103.295 109.182 105.159C105.432 107.023 101.091 107.955 96.1591 107.955C91.7955 107.955 87.8295 107.193 84.2614 105.67C80.7159 104.148 77.8864 101.784 75.7727 98.5795C73.6818 95.375 72.6477 91.2727 72.6705 86.2727H89.4773C89.5455 88.0682 89.8864 89.6023 90.5 90.875C91.1364 92.125 92.0114 93.0682 93.125 93.7045C94.2386 94.3409 95.5682 94.6591 97.1136 94.6591C98.7273 94.6591 100.091 94.3182 101.205 93.6364C102.318 92.9318 103.159 91.8977 103.727 90.5341C104.318 89.1705 104.625 87.4773 104.648 85.4545V37.1818ZM156.321 107.989C150.821 107.989 146.094 106.864 142.139 104.614C138.207 102.341 135.173 99.1818 133.037 95.1364C130.923 91.0682 129.866 86.3523 129.866 80.9886C129.866 75.6023 130.923 70.8864 133.037 66.8409C135.173 62.7727 138.207 59.6136 142.139 57.3636C146.094 55.0909 150.821 53.9545 156.321 53.9545C161.821 53.9545 166.537 55.0909 170.469 57.3636C174.423 59.6136 177.457 62.7727 179.571 66.8409C181.707 70.8864 182.776 75.6023 182.776 80.9886C182.776 86.3523 181.707 91.0682 179.571 95.1364C177.457 99.1818 174.423 102.341 170.469 104.614C166.537 106.864 161.821 107.989 156.321 107.989ZM156.423 95.4091C158.423 95.4091 160.116 94.7955 161.503 93.5682C162.889 92.3409 163.946 90.6364 164.673 88.4545C165.423 86.2727 165.798 83.75 165.798 80.8864C165.798 77.9773 165.423 75.4318 164.673 73.25C163.946 71.0682 162.889 69.3636 161.503 68.1364C160.116 66.9091 158.423 66.2955 156.423 66.2955C154.355 66.2955 152.605 66.9091 151.173 68.1364C149.764 69.3636 148.685 71.0682 147.935 73.25C147.207 75.4318 146.844 77.9773 146.844 80.8864C146.844 83.75 147.207 86.2727 147.935 88.4545C148.685 90.6364 149.764 92.3409 151.173 93.5682C152.605 94.7955 154.355 95.4091 156.423 95.4091ZM220.872 54.6364V66.9091H187.838V54.6364H220.872ZM194.759 42.0909H211.429V90.5341C211.429 91.5568 211.588 92.3864 211.906 93.0227C212.247 93.6364 212.736 94.0795 213.372 94.3523C214.009 94.6023 214.77 94.7273 215.656 94.7273C216.293 94.7273 216.963 94.6705 217.668 94.5568C218.395 94.4205 218.94 94.3068 219.304 94.2159L221.827 106.25C221.031 106.477 219.906 106.761 218.452 107.102C217.02 107.443 215.304 107.659 213.304 107.75C209.395 107.932 206.043 107.477 203.247 106.386C200.474 105.273 198.349 103.545 196.872 101.205C195.418 98.8636 194.713 95.9205 194.759 92.375V42.0909Z" fill="#0DFFC5" fill-opacity="0.78"/>
<rect x="50" y="117" width="199" height="7" rx="3.5" fill="#FF007A"/>
<rect x="50" y="20" width="199" height="7" rx="3.5" fill="#FF007A" fill-opacity="0.78"/>
<defs>
<filter id="filter0_d_1_8" x="0" y="0" width="298" height="153" filterUnits="userSpaceOnUse" color-interpolation-filters="sRGB">
<feFlood flood-opacity="0" result="BackgroundImageFix"/>
<feColorMatrix in="SourceAlpha" type="matrix" values="0 0 0 0 0 0 0 0 0 0 0 0 0 0 0 0 0 0 127 0" result="hardAlpha"/>
<feOffset dy="4"/>
<feGaussianBlur stdDeviation="2"/>
<feComposite in2="hardAlpha" operator="out"/>
<feColorMatrix type="matrix" values="0 0 0 0 0 0 0 0 0 0 0 0 0 0 0 0 0 0 0.25 0"/>
<feBlend mode="normal" in2="BackgroundImageFix" result="effect1_dropShadow_1_8"/>
<feBlend mode="normal" in="SourceGraphic" in2="effect1_dropShadow_1_8" result="shape"/>
</filter>
</defs>
</svg>
